<?xml version="1.0" encoding="UTF-8"?>
<svg id="Layer_12" xmlns="http://www.w3.org/2000/svg" xmlns:xlink="http://www.w3.org/1999/xlink" version="1.1" viewBox="0 0 1123.5 1123.5">
  <!-- Generator: Adobe Illustrator 30.2.1, SVG Export Plug-In . SVG Version: 2.1.1 Build 1)  -->
  <defs>
    <style>
      .st0 {
        fill: #fff;
      }

      .st1 {
        clip-path: url(#clippath);
      }
    </style>
    <clipPath id="clippath">
      <polygon class="st0" points="261.5 697.2 290.9 646.4 354.3 646.4 435.9 787.3 507.4 787.3 424.5 646.4 570.1 646.5 602.4 590.6 530.1 466.3 474.9 369.5 349.6 370.6 262.3 520.4 262.2 541.4 228.1 601.9 228.1 661.5 263.3 601.7 261.5 697.2"/>
    </clipPath>
  </defs>
  <g id="Background">
    <g>
      <polygon class="st0" points="739.3 788.3 667.8 788.3 594 661 647.6 569.2 662 651.5 739.3 788.3"/>
      <path class="st0" d="M786.5,360.5h-18.5l-7.7,13.2-57.5,99.6-42.5,73.5-4.9,8.5h136.5l41.5,41.5v75h-66.5c-6.8,0-12.3,5.5-12.3,12.3v49.7h79.4c33.5,0,60.7-26.8,61.3-60.2h0v-204.1c0-60.1-48.7-108.8-108.8-108.8h0ZM813.9,466.9c0,6.8-5.5,12.3-12.3,12.3h-11.4c-6.8,0-12.3-5.5-12.3-12.3v-11.4c0-6.8,5.5-12.3,12.3-12.3h11.4c6.8,0,12.3,5.5,12.3,12.3v11.4Z"/>
      <g>
        <polyline class="st0" points="261.5 697.2 290.9 646.4 354.3 646.4 435.9 787.3 507.4 787.3 424.5 646.4 570.1 646.5 602.4 590.6 530.1 466.3 474.9 369.5 349.6 370.6 262.3 520.4 262.2 541.4 228.1 601.9 228.1 661.5 263.3 601.7"/>
        <g>
          <polygon class="st0" points="261.5 697.2 290.9 646.4 354.3 646.4 435.9 787.3 507.4 787.3 424.5 646.4 570.1 646.5 602.4 590.6 530.1 466.3 474.9 369.5 349.6 370.6 262.3 520.4 262.2 541.4 228.1 601.9 228.1 661.5 263.3 601.7 261.5 697.2"/>
          <g class="st1">
            <polygon class="st0" points="225.2 699.1 224.7 698.9 224.7 699.5 225.2 699.1"/>
          </g>
        </g>
      </g>
      <polygon class="st0" points="619 561.8 749.8 335.2 488.2 335.2 619 561.8"/>
      <path class="st0" d="M581.8,675h-38.7v101c0,6.8,5.5,12.3,12.3,12.3h59.1l-.3-57-32.4-56.4h0Z"/>
      <path class="st0" d="M334.1,748.7l29.5-50.9-13.1-22.8h-55.8l-29,50.3v49.9c0,6.8,5.5,12.3,12.3,12.3h78.4l-22.2-38.9h0Z"/>
    </g>
  </g>
</svg>