<?xml version="1.0" encoding="UTF-8"?>
<svg id="Layer_12" data-name="Layer 12" xmlns="http://www.w3.org/2000/svg" xmlns:xlink="http://www.w3.org/1999/xlink" viewBox="0 0 1123.51 1123.51">
  <defs>
    <style>
      .cls-1 {
        fill: #fff;
      }

      .cls-2 {
        clip-path: url(#clippath);
      }
    </style>
    <clipPath id="clippath">
      <polyline class="cls-1" points="305.31 827.37 328.46 787.35 378.35 787.35 442.63 898.29 498.94 898.29 433.67 787.35 548.29 787.45 573.7 743.44 516.78 645.54 473.31 569.38 374.65 570.25 305.94 688.19 305.88 704.68 279.05 752.33 279.05 799.28 306.72 752.18"/>
    </clipPath>
  </defs>
  <g id="Background">
    <g>
      <path class="cls-1" d="M1082.02,1010.89H41.49L561.75,109.77l520.26,901.12ZM69.93,994.47h983.65L561.75,142.61,69.93,994.47Z"/>
      <g>
        <polygon class="cls-1" points="681.51 899.1 625.22 899.1 567.09 798.9 609.3 726.62 620.68 791.4 681.51 899.1"/>
        <path class="cls-1" d="M718.7,562.3h-14.61l-6.06,10.37-45.26,78.39-33.43,57.9-3.84,6.66h107.44l32.67,32.67v59.03h-52.4c-5.34,0-9.67,4.33-9.67,9.67v39.11h62.55c26.37,0,47.78-21.13,48.27-47.38h.02v-160.72c0-47.33-38.37-85.7-85.7-85.7ZM740.29,646.03c0,5.32-4.35,9.67-9.67,9.67h-8.99c-5.32,0-9.67-4.35-9.67-9.67v-8.99c0-5.32,4.35-9.67,9.67-9.67h8.99c5.32,0,9.67,4.35,9.67,9.67v8.99Z"/>
        <g>
          <polyline class="cls-1" points="305.31 827.37 328.46 787.35 378.35 787.35 442.63 898.29 498.94 898.29 433.67 787.35 548.29 787.45 573.7 743.44 516.78 645.54 473.31 569.38 374.65 570.25 305.94 688.19 305.88 704.68 279.05 752.33 279.05 799.28 306.72 752.18"/>
          <g class="cls-2">
            <polygon class="cls-1" points="276.72 828.89 276.34 828.67 276.34 829.2 276.72 828.89"/>
          </g>
        </g>
        <polygon class="cls-1" points="586.76 720.72 689.75 542.35 483.78 542.35 586.76 720.72"/>
        <path class="cls-1" d="M557.54,809.88h-30.45v79.55c0,5.34,4.33,9.67,9.67,9.67h46.53l-.23-44.84-25.52-44.38Z"/>
        <path class="cls-1" d="M362.46,867.89l23.21-40.05-10.35-17.95h-43.93l-22.88,39.62v39.32c0,5.34,4.33,9.67,9.67,9.67h61.73l-17.45-30.6Z"/>
      </g>
    </g>
  </g>
</svg>