<?xml version="1.0" encoding="UTF-8"?>
<svg id="Layer_12" data-name="Layer 12" xmlns="http://www.w3.org/2000/svg" xmlns:xlink="http://www.w3.org/1999/xlink" viewBox="0 0 1123.51 1123.51">
  <defs>
    <style>
      .cls-1 {
        fill: #005ed6;
      }

      .cls-2 {
        clip-path: url(#clippath);
      }
    </style>
    <clipPath id="clippath">
      <polyline class="cls-1" points="261.5 697.2 290.91 646.37 354.27 646.37 435.91 787.27 507.42 787.27 424.52 646.37 570.09 646.5 602.36 590.61 530.08 466.27 474.87 369.54 349.57 370.65 262.31 520.44 262.22 541.38 228.15 601.89 228.15 661.52 263.3 601.7"/>
    </clipPath>
  </defs>
  <g id="Background">
    <g>
      <polygon class="cls-1" points="739.29 788.3 667.8 788.3 593.98 661.04 647.59 569.25 662.03 651.52 739.29 788.3"/>
      <path class="cls-1" d="M786.52,360.55h-18.55l-7.69,13.17-57.48,99.56-42.45,73.53-4.88,8.46h136.45l41.5,41.5v74.97h-66.55c-6.78,0-12.28,5.5-12.28,12.28v49.67h79.44c33.49,0,60.69-26.84,61.31-60.18h.03v-204.11c0-60.11-48.73-108.84-108.84-108.84ZM813.94,466.88c0,6.75-5.52,12.28-12.28,12.28h-11.41c-6.75,0-12.28-5.52-12.28-12.28v-11.41c0-6.75,5.52-12.28,12.28-12.28h11.41c6.75,0,12.28,5.52,12.28,12.28v11.41Z"/>
      <g>
        <polyline class="cls-1" points="261.5 697.2 290.91 646.37 354.27 646.37 435.91 787.27 507.42 787.27 424.52 646.37 570.09 646.5 602.36 590.61 530.08 466.27 474.87 369.54 349.57 370.65 262.31 520.44 262.22 541.38 228.15 601.89 228.15 661.52 263.3 601.7"/>
        <g class="cls-2">
          <polygon class="cls-1" points="225.19 699.13 224.71 698.86 224.71 699.52 225.19 699.13"/>
        </g>
      </g>
      <polygon class="cls-1" points="618.96 561.75 749.75 335.21 488.16 335.21 618.96 561.75"/>
      <path class="cls-1" d="M581.84,674.99h-38.67v101.03c0,6.78,5.5,12.28,12.28,12.28h59.1l-.29-56.95-32.42-56.36Z"/>
      <path class="cls-1" d="M334.08,748.66l29.48-50.87-13.15-22.8h-55.79l-29.05,50.32v49.94c0,6.78,5.5,12.28,12.28,12.28h78.4l-22.16-38.87Z"/>
    </g>
  </g>
</svg>